<mxfile host="app.diagrams.net" modified="2023-11-12T20:40:36.521Z" agent="Mozilla/5.0 (Windows NT 10.0; Win64; x64) AppleWebKit/537.36 (KHTML, like Gecko) Chrome/119.0.0.0 Safari/537.36" etag="svHOU3ERnRezxm3pCpgz" version="22.1.0" type="device">
  <diagram name="Sayfa -1" id="89VtcqGEInI7bRkLB69x">
    <mxGraphModel dx="1247" dy="1851" grid="1" gridSize="10" guides="1" tooltips="1" connect="1" arrows="1" fold="1" page="1" pageScale="1" pageWidth="827" pageHeight="1169" math="0" shadow="0">
      <root>
        <mxCell id="0" />
        <mxCell id="1" parent="0" />
        <mxCell id="ndZB8lVZRMzsE8QjB5wO-102" value="" style="fillColor=none;strokeColor=#CC6600;verticalAlign=top;fontStyle=0;fontColor=#FF8000;whiteSpace=wrap;html=1;" parent="1" vertex="1">
          <mxGeometry x="90" y="360" width="630" height="255" as="geometry" />
        </mxCell>
        <mxCell id="ndZB8lVZRMzsE8QjB5wO-89" value="&lt;b&gt;CI/CD&lt;/b&gt;" style="fillColor=#EFF0F3;strokeColor=none;dashed=0;verticalAlign=top;fontStyle=0;fontColor=#232F3D;whiteSpace=wrap;html=1;movable=1;resizable=1;rotatable=1;deletable=1;editable=1;locked=0;connectable=1;" parent="1" vertex="1">
          <mxGeometry x="670" y="-60" width="360" height="130.5" as="geometry" />
        </mxCell>
        <mxCell id="ndZB8lVZRMzsE8QjB5wO-125" style="edgeStyle=orthogonalEdgeStyle;rounded=0;orthogonalLoop=1;jettySize=auto;html=1;exitX=1;exitY=0.5;exitDx=0;exitDy=0;" parent="1" source="ndZB8lVZRMzsE8QjB5wO-39" target="ndZB8lVZRMzsE8QjB5wO-25" edge="1">
          <mxGeometry relative="1" as="geometry">
            <mxPoint x="460" y="30" as="targetPoint" />
          </mxGeometry>
        </mxCell>
        <mxCell id="ndZB8lVZRMzsE8QjB5wO-39" value="" style="fillColor=#f5f5f5;strokeColor=#666666;verticalAlign=top;fontStyle=0;whiteSpace=wrap;html=1;fontColor=#333333;" parent="1" vertex="1">
          <mxGeometry x="167" y="-19.5" width="203" height="100" as="geometry" />
        </mxCell>
        <mxCell id="ndZB8lVZRMzsE8QjB5wO-1" value="AWS Cloud" style="points=[[0,0],[0.25,0],[0.5,0],[0.75,0],[1,0],[1,0.25],[1,0.5],[1,0.75],[1,1],[0.75,1],[0.5,1],[0.25,1],[0,1],[0,0.75],[0,0.5],[0,0.25]];outlineConnect=0;gradientColor=none;html=1;whiteSpace=wrap;fontSize=12;fontStyle=0;container=1;pointerEvents=0;collapsible=0;recursiveResize=0;shape=mxgraph.aws4.group;grIcon=mxgraph.aws4.group_aws_cloud_alt;strokeColor=#232F3E;fillColor=none;verticalAlign=top;align=left;spacingLeft=30;fontColor=#232F3E;dashed=0;" parent="1" vertex="1">
          <mxGeometry x="40" y="100" width="1000" height="540" as="geometry" />
        </mxCell>
        <mxCell id="ndZB8lVZRMzsE8QjB5wO-2" value="eu-central-1" style="points=[[0,0],[0.25,0],[0.5,0],[0.75,0],[1,0],[1,0.25],[1,0.5],[1,0.75],[1,1],[0.75,1],[0.5,1],[0.25,1],[0,1],[0,0.75],[0,0.5],[0,0.25]];outlineConnect=0;gradientColor=none;html=1;whiteSpace=wrap;fontSize=12;fontStyle=0;container=1;pointerEvents=0;collapsible=0;recursiveResize=0;shape=mxgraph.aws4.group;grIcon=mxgraph.aws4.group_region;strokeColor=#66FFFF;fillColor=none;verticalAlign=top;align=left;spacingLeft=30;fontColor=#66FFFF;dashed=1;" parent="ndZB8lVZRMzsE8QjB5wO-1" vertex="1">
          <mxGeometry x="20" y="40" width="820" height="500" as="geometry" />
        </mxCell>
        <mxCell id="ndZB8lVZRMzsE8QjB5wO-3" value="VPC" style="points=[[0,0],[0.25,0],[0.5,0],[0.75,0],[1,0],[1,0.25],[1,0.5],[1,0.75],[1,1],[0.75,1],[0.5,1],[0.25,1],[0,1],[0,0.75],[0,0.5],[0,0.25]];outlineConnect=0;gradientColor=none;html=1;whiteSpace=wrap;fontSize=12;fontStyle=0;container=1;pointerEvents=0;collapsible=0;recursiveResize=0;shape=mxgraph.aws4.group;grIcon=mxgraph.aws4.group_vpc2;strokeColor=#4D9900;fillColor=none;verticalAlign=top;align=left;spacingLeft=30;fontColor=#AAB7B8;dashed=0;" parent="ndZB8lVZRMzsE8QjB5wO-2" vertex="1">
          <mxGeometry x="20" y="30" width="690" height="460" as="geometry" />
        </mxCell>
        <mxCell id="ndZB8lVZRMzsE8QjB5wO-8" value="eu-central-1b" style="fillColor=none;strokeColor=#147EBA;dashed=1;verticalAlign=top;fontStyle=0;fontColor=#147EBA;whiteSpace=wrap;html=1;rotation=0;" parent="ndZB8lVZRMzsE8QjB5wO-3" vertex="1">
          <mxGeometry x="240" y="100" width="160" height="325" as="geometry" />
        </mxCell>
        <mxCell id="ndZB8lVZRMzsE8QjB5wO-28" value="Application Load &lt;br&gt;Balancer" style="text;html=1;align=center;verticalAlign=middle;resizable=0;points=[];autosize=1;strokeColor=none;fillColor=none;" parent="ndZB8lVZRMzsE8QjB5wO-3" vertex="1">
          <mxGeometry x="250" y="28.75" width="110" height="40" as="geometry" />
        </mxCell>
        <mxCell id="ndZB8lVZRMzsE8QjB5wO-9" value="eu-central-1c" style="fillColor=none;strokeColor=#147EBA;dashed=1;verticalAlign=top;fontStyle=0;fontColor=#147EBA;whiteSpace=wrap;html=1;rotation=0;" parent="ndZB8lVZRMzsE8QjB5wO-3" vertex="1">
          <mxGeometry x="440" y="100" width="162" height="325" as="geometry" />
        </mxCell>
        <mxCell id="ndZB8lVZRMzsE8QjB5wO-7" value="eu-central-1a" style="fillColor=none;strokeColor=#147EBA;dashed=1;verticalAlign=top;fontStyle=0;fontColor=#147EBA;whiteSpace=wrap;html=1;rotation=0;movable=1;resizable=1;rotatable=1;deletable=1;editable=1;locked=0;connectable=1;" parent="ndZB8lVZRMzsE8QjB5wO-3" vertex="1">
          <mxGeometry x="40" y="100" width="160" height="325" as="geometry" />
        </mxCell>
        <mxCell id="ndZB8lVZRMzsE8QjB5wO-34" value="" style="sketch=0;points=[[0,0,0],[0.25,0,0],[0.5,0,0],[0.75,0,0],[1,0,0],[0,1,0],[0.25,1,0],[0.5,1,0],[0.75,1,0],[1,1,0],[0,0.25,0],[0,0.5,0],[0,0.75,0],[1,0.25,0],[1,0.5,0],[1,0.75,0]];outlineConnect=0;fontColor=#232F3E;fillColor=#ED7100;strokeColor=#ffffff;dashed=0;verticalLabelPosition=bottom;verticalAlign=top;align=center;html=1;fontSize=12;fontStyle=0;aspect=fixed;shape=mxgraph.aws4.resourceIcon;resIcon=mxgraph.aws4.ecs;" parent="ndZB8lVZRMzsE8QjB5wO-3" vertex="1">
          <mxGeometry x="10" y="190" width="25" height="25" as="geometry" />
        </mxCell>
        <mxCell id="ndZB8lVZRMzsE8QjB5wO-103" value="ECS" style="text;html=1;align=center;verticalAlign=middle;resizable=0;points=[];autosize=1;strokeColor=none;fillColor=none;fontColor=#FF8000;" parent="ndZB8lVZRMzsE8QjB5wO-3" vertex="1">
          <mxGeometry x="35" y="185" width="50" height="30" as="geometry" />
        </mxCell>
        <mxCell id="ndZB8lVZRMzsE8QjB5wO-105" value="Private subnet" style="points=[[0,0],[0.25,0],[0.5,0],[0.75,0],[1,0],[1,0.25],[1,0.5],[1,0.75],[1,1],[0.75,1],[0.5,1],[0.25,1],[0,1],[0,0.75],[0,0.5],[0,0.25]];outlineConnect=0;gradientColor=none;html=1;whiteSpace=wrap;fontSize=12;fontStyle=0;container=1;pointerEvents=0;collapsible=0;recursiveResize=0;shape=mxgraph.aws4.group;grIcon=mxgraph.aws4.group_security_group;grStroke=0;strokeColor=#00A4A6;fillColor=#E6F6F7;verticalAlign=top;align=left;spacingLeft=30;fontColor=#147EBA;dashed=0;" parent="ndZB8lVZRMzsE8QjB5wO-3" vertex="1">
          <mxGeometry x="57.5" y="135" width="125" height="35" as="geometry" />
        </mxCell>
        <mxCell id="ndZB8lVZRMzsE8QjB5wO-107" value="Private subnet" style="points=[[0,0],[0.25,0],[0.5,0],[0.75,0],[1,0],[1,0.25],[1,0.5],[1,0.75],[1,1],[0.75,1],[0.5,1],[0.25,1],[0,1],[0,0.75],[0,0.5],[0,0.25]];outlineConnect=0;gradientColor=none;html=1;whiteSpace=wrap;fontSize=12;fontStyle=0;container=1;pointerEvents=0;collapsible=0;recursiveResize=0;shape=mxgraph.aws4.group;grIcon=mxgraph.aws4.group_security_group;grStroke=0;strokeColor=#00A4A6;fillColor=#E6F6F7;verticalAlign=top;align=left;spacingLeft=30;fontColor=#147EBA;dashed=0;" parent="ndZB8lVZRMzsE8QjB5wO-3" vertex="1">
          <mxGeometry x="257.5" y="135" width="125" height="35" as="geometry" />
        </mxCell>
        <mxCell id="ndZB8lVZRMzsE8QjB5wO-106" value="Private subnet" style="points=[[0,0],[0.25,0],[0.5,0],[0.75,0],[1,0],[1,0.25],[1,0.5],[1,0.75],[1,1],[0.75,1],[0.5,1],[0.25,1],[0,1],[0,0.75],[0,0.5],[0,0.25]];outlineConnect=0;gradientColor=none;html=1;whiteSpace=wrap;fontSize=12;fontStyle=0;container=1;pointerEvents=0;collapsible=0;recursiveResize=0;shape=mxgraph.aws4.group;grIcon=mxgraph.aws4.group_security_group;grStroke=0;strokeColor=#00A4A6;fillColor=#E6F6F7;verticalAlign=top;align=left;spacingLeft=30;fontColor=#147EBA;dashed=0;" parent="ndZB8lVZRMzsE8QjB5wO-3" vertex="1">
          <mxGeometry x="458.5" y="135" width="125" height="35" as="geometry" />
        </mxCell>
        <mxCell id="ndZB8lVZRMzsE8QjB5wO-108" value="Public subnet" style="points=[[0,0],[0.25,0],[0.5,0],[0.75,0],[1,0],[1,0.25],[1,0.5],[1,0.75],[1,1],[0.75,1],[0.5,1],[0.25,1],[0,1],[0,0.75],[0,0.5],[0,0.25]];outlineConnect=0;gradientColor=none;html=1;whiteSpace=wrap;fontSize=12;fontStyle=0;container=1;pointerEvents=0;collapsible=0;recursiveResize=0;shape=mxgraph.aws4.group;grIcon=mxgraph.aws4.group_security_group;grStroke=0;strokeColor=#7AA116;fillColor=#F2F6E8;verticalAlign=top;align=left;spacingLeft=30;fontColor=#248814;dashed=0;" parent="ndZB8lVZRMzsE8QjB5wO-3" vertex="1">
          <mxGeometry x="55" y="220" width="130" height="170" as="geometry" />
        </mxCell>
        <mxCell id="ndZB8lVZRMzsE8QjB5wO-123" value="Public subnet" style="points=[[0,0],[0.25,0],[0.5,0],[0.75,0],[1,0],[1,0.25],[1,0.5],[1,0.75],[1,1],[0.75,1],[0.5,1],[0.25,1],[0,1],[0,0.75],[0,0.5],[0,0.25]];outlineConnect=0;gradientColor=none;html=1;whiteSpace=wrap;fontSize=12;fontStyle=0;container=1;pointerEvents=0;collapsible=0;recursiveResize=0;shape=mxgraph.aws4.group;grIcon=mxgraph.aws4.group_security_group;grStroke=0;strokeColor=#7AA116;fillColor=#F2F6E8;verticalAlign=top;align=left;spacingLeft=30;fontColor=#248814;dashed=0;" parent="ndZB8lVZRMzsE8QjB5wO-3" vertex="1">
          <mxGeometry x="255" y="220" width="130" height="170" as="geometry" />
        </mxCell>
        <mxCell id="ndZB8lVZRMzsE8QjB5wO-122" value="Public subnet" style="points=[[0,0],[0.25,0],[0.5,0],[0.75,0],[1,0],[1,0.25],[1,0.5],[1,0.75],[1,1],[0.75,1],[0.5,1],[0.25,1],[0,1],[0,0.75],[0,0.5],[0,0.25]];outlineConnect=0;gradientColor=none;html=1;whiteSpace=wrap;fontSize=12;fontStyle=0;container=1;pointerEvents=0;collapsible=0;recursiveResize=0;shape=mxgraph.aws4.group;grIcon=mxgraph.aws4.group_security_group;grStroke=0;strokeColor=#7AA116;fillColor=#F2F6E8;verticalAlign=top;align=left;spacingLeft=30;fontColor=#248814;dashed=0;" parent="ndZB8lVZRMzsE8QjB5wO-3" vertex="1">
          <mxGeometry x="453.5" y="220" width="130" height="170" as="geometry" />
        </mxCell>
        <mxCell id="ndZB8lVZRMzsE8QjB5wO-13" value="Auto Scaling group" style="points=[[0,0],[0.25,0],[0.5,0],[0.75,0],[1,0],[1,0.25],[1,0.5],[1,0.75],[1,1],[0.75,1],[0.5,1],[0.25,1],[0,1],[0,0.75],[0,0.5],[0,0.25]];outlineConnect=0;gradientColor=none;html=1;whiteSpace=wrap;fontSize=12;fontStyle=0;container=1;pointerEvents=0;collapsible=0;recursiveResize=0;shape=mxgraph.aws4.groupCenter;grIcon=mxgraph.aws4.group_auto_scaling_group;grStroke=1;strokeColor=#990000;fillColor=none;verticalAlign=top;align=center;fontColor=#D86613;spacingTop=25;movable=1;resizable=1;rotatable=1;deletable=1;editable=1;locked=0;connectable=1;rotation=0;" parent="ndZB8lVZRMzsE8QjB5wO-3" vertex="1">
          <mxGeometry x="25" y="270" width="590" height="130" as="geometry" />
        </mxCell>
        <mxCell id="ndZB8lVZRMzsE8QjB5wO-49" value="" style="sketch=0;outlineConnect=0;fontColor=#232F3E;gradientColor=none;fillColor=#ED7100;strokeColor=none;dashed=0;verticalLabelPosition=bottom;verticalAlign=top;align=center;html=1;fontSize=12;fontStyle=0;aspect=fixed;pointerEvents=1;shape=mxgraph.aws4.ecs_task;rotation=0;" parent="ndZB8lVZRMzsE8QjB5wO-13" vertex="1">
          <mxGeometry x="84.99999999999999" y="56" width="26.21" height="34" as="geometry" />
        </mxCell>
        <mxCell id="ndZB8lVZRMzsE8QjB5wO-55" value="" style="sketch=0;outlineConnect=0;fontColor=#232F3E;gradientColor=none;fillColor=#ED7100;strokeColor=none;dashed=0;verticalLabelPosition=bottom;verticalAlign=top;align=center;html=1;fontSize=12;fontStyle=0;aspect=fixed;pointerEvents=1;shape=mxgraph.aws4.ecs_task;rotation=0;" parent="ndZB8lVZRMzsE8QjB5wO-13" vertex="1">
          <mxGeometry x="485" y="56" width="26.21" height="34" as="geometry" />
        </mxCell>
        <mxCell id="LSAlraSe59On-p1QP0S1-12" value="Tasks" style="text;html=1;align=center;verticalAlign=middle;resizable=0;points=[];autosize=1;strokeColor=none;fillColor=none;fontColor=#FF8000;" vertex="1" parent="ndZB8lVZRMzsE8QjB5wO-13">
          <mxGeometry x="473.1" y="90" width="50" height="30" as="geometry" />
        </mxCell>
        <mxCell id="LSAlraSe59On-p1QP0S1-11" value="Tasks" style="text;html=1;align=center;verticalAlign=middle;resizable=0;points=[];autosize=1;strokeColor=none;fillColor=none;fontColor=#FF8000;" vertex="1" parent="ndZB8lVZRMzsE8QjB5wO-13">
          <mxGeometry x="270" y="90" width="50" height="30" as="geometry" />
        </mxCell>
        <mxCell id="ndZB8lVZRMzsE8QjB5wO-38" value="" style="sketch=0;points=[[0,0,0],[0.25,0,0],[0.5,0,0],[0.75,0,0],[1,0,0],[0,1,0],[0.25,1,0],[0.5,1,0],[0.75,1,0],[1,1,0],[0,0.25,0],[0,0.5,0],[0,0.75,0],[1,0.25,0],[1,0.5,0],[1,0.75,0]];outlineConnect=0;fontColor=#232F3E;fillColor=#ED7100;strokeColor=#ffffff;dashed=0;verticalLabelPosition=bottom;verticalAlign=top;align=center;html=1;fontSize=12;fontStyle=0;aspect=fixed;shape=mxgraph.aws4.resourceIcon;resIcon=mxgraph.aws4.fargate;" parent="ndZB8lVZRMzsE8QjB5wO-3" vertex="1">
          <mxGeometry x="25" y="270" width="30" height="30" as="geometry" />
        </mxCell>
        <mxCell id="ndZB8lVZRMzsE8QjB5wO-130" value="Fargate" style="text;html=1;align=center;verticalAlign=middle;resizable=0;points=[];autosize=1;strokeColor=none;fillColor=none;fontColor=#990000;" parent="ndZB8lVZRMzsE8QjB5wO-3" vertex="1">
          <mxGeometry x="55" y="270" width="60" height="30" as="geometry" />
        </mxCell>
        <mxCell id="ndZB8lVZRMzsE8QjB5wO-60" value="" style="sketch=0;outlineConnect=0;fontColor=#232F3E;gradientColor=none;fillColor=#ED7100;strokeColor=none;dashed=0;verticalLabelPosition=bottom;verticalAlign=top;align=center;html=1;fontSize=12;fontStyle=0;aspect=fixed;pointerEvents=1;shape=mxgraph.aws4.ecs_task;rotation=0;" parent="ndZB8lVZRMzsE8QjB5wO-3" vertex="1">
          <mxGeometry x="306.9" y="325" width="26.21" height="34" as="geometry" />
        </mxCell>
        <mxCell id="LSAlraSe59On-p1QP0S1-10" value="Tasks" style="text;html=1;align=center;verticalAlign=middle;resizable=0;points=[];autosize=1;strokeColor=none;fillColor=none;fontColor=#FF8000;" vertex="1" parent="ndZB8lVZRMzsE8QjB5wO-3">
          <mxGeometry x="95" y="359" width="50" height="30" as="geometry" />
        </mxCell>
        <mxCell id="ndZB8lVZRMzsE8QjB5wO-25" value="" style="sketch=0;outlineConnect=0;fontColor=#232F3E;gradientColor=none;fillColor=#8C4FFF;strokeColor=none;dashed=0;verticalLabelPosition=bottom;verticalAlign=top;align=center;html=1;fontSize=12;fontStyle=0;aspect=fixed;pointerEvents=1;shape=mxgraph.aws4.application_load_balancer;" parent="ndZB8lVZRMzsE8QjB5wO-3" vertex="1">
          <mxGeometry x="377.5" y="17.5" width="62.5" height="62.5" as="geometry" />
        </mxCell>
        <mxCell id="LSAlraSe59On-p1QP0S1-18" style="edgeStyle=orthogonalEdgeStyle;rounded=0;orthogonalLoop=1;jettySize=auto;html=1;entryX=1;entryY=0.75;entryDx=0;entryDy=0;strokeColor=#990000;" edge="1" parent="ndZB8lVZRMzsE8QjB5wO-3" source="LSAlraSe59On-p1QP0S1-2" target="ndZB8lVZRMzsE8QjB5wO-13">
          <mxGeometry relative="1" as="geometry">
            <Array as="points">
              <mxPoint x="680" y="368" />
              <mxPoint x="680" y="368" />
            </Array>
          </mxGeometry>
        </mxCell>
        <mxCell id="ndZB8lVZRMzsE8QjB5wO-72" value="" style="sketch=0;points=[[0,0,0],[0.25,0,0],[0.5,0,0],[0.75,0,0],[1,0,0],[0,1,0],[0.25,1,0],[0.5,1,0],[0.75,1,0],[1,1,0],[0,0.25,0],[0,0.5,0],[0,0.75,0],[1,0.25,0],[1,0.5,0],[1,0.75,0]];points=[[0,0,0],[0.25,0,0],[0.5,0,0],[0.75,0,0],[1,0,0],[0,1,0],[0.25,1,0],[0.5,1,0],[0.75,1,0],[1,1,0],[0,0.25,0],[0,0.5,0],[0,0.75,0],[1,0.25,0],[1,0.5,0],[1,0.75,0]];outlineConnect=0;fontColor=#99FF99;fillColor=#E7157B;strokeColor=#ffffff;dashed=0;verticalLabelPosition=bottom;verticalAlign=top;align=center;html=1;fontSize=12;fontStyle=0;aspect=fixed;shape=mxgraph.aws4.resourceIcon;resIcon=mxgraph.aws4.cloudwatch_2;" parent="ndZB8lVZRMzsE8QjB5wO-1" vertex="1">
          <mxGeometry x="885" y="280" width="70" height="70" as="geometry" />
        </mxCell>
        <mxCell id="LSAlraSe59On-p1QP0S1-16" style="edgeStyle=orthogonalEdgeStyle;rounded=0;orthogonalLoop=1;jettySize=auto;html=1;" edge="1" parent="ndZB8lVZRMzsE8QjB5wO-1" source="ndZB8lVZRMzsE8QjB5wO-73" target="LSAlraSe59On-p1QP0S1-2">
          <mxGeometry relative="1" as="geometry">
            <Array as="points">
              <mxPoint x="920" y="400" />
              <mxPoint x="920" y="400" />
            </Array>
          </mxGeometry>
        </mxCell>
        <mxCell id="ndZB8lVZRMzsE8QjB5wO-73" value="AWS &lt;br&gt;CloudWatch" style="text;html=1;align=center;verticalAlign=middle;resizable=0;points=[];autosize=1;strokeColor=none;fillColor=none;" parent="ndZB8lVZRMzsE8QjB5wO-1" vertex="1">
          <mxGeometry x="875" y="350" width="90" height="40" as="geometry" />
        </mxCell>
        <mxCell id="ndZB8lVZRMzsE8QjB5wO-132" value="CPU Utilization&lt;br&gt;Alarm" style="text;html=1;align=center;verticalAlign=middle;resizable=0;points=[];autosize=1;strokeColor=none;fillColor=none;" parent="ndZB8lVZRMzsE8QjB5wO-1" vertex="1">
          <mxGeometry x="870" y="470" width="100" height="40" as="geometry" />
        </mxCell>
        <mxCell id="LSAlraSe59On-p1QP0S1-2" value="" style="sketch=0;outlineConnect=0;fontColor=#232F3E;gradientColor=none;fillColor=#E7157B;strokeColor=none;dashed=0;verticalLabelPosition=bottom;verticalAlign=top;align=center;html=1;fontSize=12;fontStyle=0;aspect=fixed;pointerEvents=1;shape=mxgraph.aws4.alarm;" vertex="1" parent="ndZB8lVZRMzsE8QjB5wO-1">
          <mxGeometry x="890" y="410" width="60" height="60" as="geometry" />
        </mxCell>
        <mxCell id="ndZB8lVZRMzsE8QjB5wO-19" value="" style="sketch=0;outlineConnect=0;fontColor=#232F3E;gradientColor=none;fillColor=#232F3D;strokeColor=none;dashed=0;verticalLabelPosition=bottom;verticalAlign=top;align=center;html=1;fontSize=12;fontStyle=0;aspect=fixed;pointerEvents=1;shape=mxgraph.aws4.users;" parent="1" vertex="1">
          <mxGeometry x="70" y="5.5" width="50" height="50" as="geometry" />
        </mxCell>
        <mxCell id="ndZB8lVZRMzsE8QjB5wO-20" value="" style="verticalLabelPosition=bottom;html=1;verticalAlign=top;align=center;strokeColor=none;fillColor=#00BEF2;shape=mxgraph.azure.mobile;pointerEvents=1;" parent="1" vertex="1">
          <mxGeometry x="180" y="-9.5" width="45" height="80" as="geometry" />
        </mxCell>
        <mxCell id="ndZB8lVZRMzsE8QjB5wO-22" value="" style="fontColor=#0066CC;verticalAlign=top;verticalLabelPosition=bottom;labelPosition=center;align=center;html=1;outlineConnect=0;fillColor=#CCCCCC;strokeColor=#6881B3;gradientColor=none;gradientDirection=north;strokeWidth=2;shape=mxgraph.networks.pc;" parent="1" vertex="1">
          <mxGeometry x="260" y="0.5" width="90" height="60" as="geometry" />
        </mxCell>
        <mxCell id="ndZB8lVZRMzsE8QjB5wO-29" value="Users" style="text;html=1;align=center;verticalAlign=middle;resizable=0;points=[];autosize=1;strokeColor=none;fillColor=none;" parent="1" vertex="1">
          <mxGeometry x="70" y="50.5" width="50" height="30" as="geometry" />
        </mxCell>
        <mxCell id="ndZB8lVZRMzsE8QjB5wO-32" value="HTTP/S &lt;br&gt;Requests" style="text;html=1;align=center;verticalAlign=middle;resizable=0;points=[];autosize=1;strokeColor=none;fillColor=none;" parent="1" vertex="1">
          <mxGeometry x="379" y="30.5" width="70" height="40" as="geometry" />
        </mxCell>
        <mxCell id="ndZB8lVZRMzsE8QjB5wO-77" value="" style="image;sketch=0;aspect=fixed;html=1;points=[];align=center;fontSize=12;image=img/lib/mscae/Docker.svg;" parent="1" vertex="1">
          <mxGeometry x="680" y="-6.25" width="49.39" height="40.5" as="geometry" />
        </mxCell>
        <mxCell id="ndZB8lVZRMzsE8QjB5wO-80" style="edgeStyle=orthogonalEdgeStyle;rounded=0;orthogonalLoop=1;jettySize=auto;html=1;entryX=0;entryY=0.5;entryDx=0;entryDy=0;" parent="1" source="ndZB8lVZRMzsE8QjB5wO-19" target="ndZB8lVZRMzsE8QjB5wO-39" edge="1">
          <mxGeometry relative="1" as="geometry" />
        </mxCell>
        <mxCell id="ndZB8lVZRMzsE8QjB5wO-85" value="" style="shape=image;html=1;verticalAlign=top;verticalLabelPosition=bottom;labelBackgroundColor=#ffffff;imageAspect=0;aspect=fixed;image=https://cdn4.iconfinder.com/data/icons/socialcones/508/Gitlab-128.png" parent="1" vertex="1">
          <mxGeometry x="960.3" y="-12.350000000000023" width="48.7" height="48.7" as="geometry" />
        </mxCell>
        <mxCell id="ndZB8lVZRMzsE8QjB5wO-92" style="edgeStyle=orthogonalEdgeStyle;rounded=0;orthogonalLoop=1;jettySize=auto;html=1;entryX=1;entryY=0.5;entryDx=0;entryDy=0;" parent="1" source="ndZB8lVZRMzsE8QjB5wO-87" target="ndZB8lVZRMzsE8QjB5wO-85" edge="1">
          <mxGeometry relative="1" as="geometry">
            <mxPoint x="1020" y="12" as="targetPoint" />
          </mxGeometry>
        </mxCell>
        <mxCell id="ndZB8lVZRMzsE8QjB5wO-87" value="" style="outlineConnect=0;dashed=0;verticalLabelPosition=bottom;verticalAlign=top;align=center;html=1;shape=mxgraph.aws3.users;fillColor=#D2D3D3;gradientColor=none;" parent="1" vertex="1">
          <mxGeometry x="1094" y="-19.5" width="66" height="63" as="geometry" />
        </mxCell>
        <mxCell id="LSAlraSe59On-p1QP0S1-5" style="edgeStyle=orthogonalEdgeStyle;rounded=0;orthogonalLoop=1;jettySize=auto;html=1;entryX=0.5;entryY=0;entryDx=0;entryDy=0;" edge="1" parent="1" source="ndZB8lVZRMzsE8QjB5wO-88" target="LSAlraSe59On-p1QP0S1-1">
          <mxGeometry relative="1" as="geometry" />
        </mxCell>
        <mxCell id="ndZB8lVZRMzsE8QjB5wO-88" value="Developers" style="text;html=1;align=center;verticalAlign=middle;resizable=0;points=[];autosize=1;strokeColor=none;fillColor=none;" parent="1" vertex="1">
          <mxGeometry x="1087" y="40.5" width="80" height="30" as="geometry" />
        </mxCell>
        <mxCell id="ndZB8lVZRMzsE8QjB5wO-91" value="" style="outlineConnect=0;dashed=0;verticalLabelPosition=bottom;verticalAlign=top;align=center;html=1;shape=mxgraph.aws3.codebuild;fillColor=#759C3E;gradientColor=none;" parent="1" vertex="1">
          <mxGeometry x="870.3" y="-12.649999999999977" width="50" height="49" as="geometry" />
        </mxCell>
        <mxCell id="ndZB8lVZRMzsE8QjB5wO-93" value="commit" style="text;html=1;align=center;verticalAlign=middle;resizable=0;points=[];autosize=1;strokeColor=none;fillColor=none;" parent="1" vertex="1">
          <mxGeometry x="1030" y="10.5" width="60" height="30" as="geometry" />
        </mxCell>
        <mxCell id="ndZB8lVZRMzsE8QjB5wO-94" value="Build" style="text;html=1;align=center;verticalAlign=middle;resizable=0;points=[];autosize=1;strokeColor=none;fillColor=none;" parent="1" vertex="1">
          <mxGeometry x="870.3" y="34.25" width="50" height="30" as="geometry" />
        </mxCell>
        <mxCell id="ndZB8lVZRMzsE8QjB5wO-95" style="edgeStyle=orthogonalEdgeStyle;rounded=0;orthogonalLoop=1;jettySize=auto;html=1;exitX=0;exitY=0.5;exitDx=0;exitDy=0;exitPerimeter=0;entryX=1;entryY=0.5;entryDx=0;entryDy=0;entryPerimeter=0;" parent="1" target="ndZB8lVZRMzsE8QjB5wO-91" edge="1">
          <mxGeometry relative="1" as="geometry">
            <mxPoint x="960.3" y="12" as="sourcePoint" />
          </mxGeometry>
        </mxCell>
        <mxCell id="ndZB8lVZRMzsE8QjB5wO-96" value="Gitlab" style="text;html=1;align=center;verticalAlign=middle;resizable=0;points=[];autosize=1;strokeColor=none;fillColor=none;" parent="1" vertex="1">
          <mxGeometry x="959" y="34.25" width="50" height="30" as="geometry" />
        </mxCell>
        <mxCell id="ndZB8lVZRMzsE8QjB5wO-97" value="" style="outlineConnect=0;dashed=0;verticalLabelPosition=bottom;verticalAlign=top;align=center;html=1;shape=mxgraph.aws3.codedeploy;fillColor=#759C3E;gradientColor=none;" parent="1" vertex="1">
          <mxGeometry x="780.3" y="-14.920000000000073" width="50" height="53.85" as="geometry" />
        </mxCell>
        <mxCell id="ndZB8lVZRMzsE8QjB5wO-98" style="edgeStyle=orthogonalEdgeStyle;rounded=0;orthogonalLoop=1;jettySize=auto;html=1;exitX=0;exitY=0.5;exitDx=0;exitDy=0;exitPerimeter=0;entryX=1;entryY=0.5;entryDx=0;entryDy=0;entryPerimeter=0;" parent="1" source="ndZB8lVZRMzsE8QjB5wO-91" target="ndZB8lVZRMzsE8QjB5wO-97" edge="1">
          <mxGeometry relative="1" as="geometry" />
        </mxCell>
        <mxCell id="ndZB8lVZRMzsE8QjB5wO-99" value="Deploy" style="text;html=1;align=center;verticalAlign=middle;resizable=0;points=[];autosize=1;strokeColor=none;fillColor=none;" parent="1" vertex="1">
          <mxGeometry x="775.3" y="34.25" width="60" height="30" as="geometry" />
        </mxCell>
        <mxCell id="ndZB8lVZRMzsE8QjB5wO-100" value="Docker Hub" style="text;html=1;align=center;verticalAlign=middle;resizable=0;points=[];autosize=1;strokeColor=none;fillColor=none;" parent="1" vertex="1">
          <mxGeometry x="659.7" y="30.5" width="90" height="30" as="geometry" />
        </mxCell>
        <mxCell id="ndZB8lVZRMzsE8QjB5wO-101" style="edgeStyle=orthogonalEdgeStyle;rounded=0;orthogonalLoop=1;jettySize=auto;html=1;exitX=0.5;exitY=0;exitDx=0;exitDy=0;exitPerimeter=0;entryX=0.526;entryY=-0.019;entryDx=0;entryDy=0;entryPerimeter=0;" parent="1" source="ndZB8lVZRMzsE8QjB5wO-91" target="ndZB8lVZRMzsE8QjB5wO-77" edge="1">
          <mxGeometry relative="1" as="geometry">
            <Array as="points">
              <mxPoint x="895" y="-20" />
              <mxPoint x="706" y="-20" />
            </Array>
          </mxGeometry>
        </mxCell>
        <mxCell id="LSAlraSe59On-p1QP0S1-6" style="edgeStyle=orthogonalEdgeStyle;rounded=0;orthogonalLoop=1;jettySize=auto;html=1;exitX=0;exitY=0.5;exitDx=0;exitDy=0;" edge="1" parent="1" source="LSAlraSe59On-p1QP0S1-1" target="ndZB8lVZRMzsE8QjB5wO-1">
          <mxGeometry relative="1" as="geometry" />
        </mxCell>
        <mxCell id="LSAlraSe59On-p1QP0S1-1" value="" style="shape=image;verticalLabelPosition=bottom;labelBackgroundColor=default;verticalAlign=top;aspect=fixed;imageAspect=0;image=https://chris-ayers.com/assets/images/terraform-logo.png;" vertex="1" parent="1">
          <mxGeometry x="1086.0400000000002" y="330" width="81.91" height="80" as="geometry" />
        </mxCell>
        <mxCell id="LSAlraSe59On-p1QP0S1-7" value="Code Base &lt;br&gt;Infrastructure" style="text;html=1;align=center;verticalAlign=middle;resizable=0;points=[];autosize=1;strokeColor=none;fillColor=none;" vertex="1" parent="1">
          <mxGeometry x="1082" y="420" width="90" height="40" as="geometry" />
        </mxCell>
        <mxCell id="LSAlraSe59On-p1QP0S1-9" style="edgeStyle=orthogonalEdgeStyle;rounded=0;orthogonalLoop=1;jettySize=auto;html=1;entryX=0.634;entryY=0.001;entryDx=0;entryDy=0;entryPerimeter=0;" edge="1" parent="1" source="ndZB8lVZRMzsE8QjB5wO-25" target="ndZB8lVZRMzsE8QjB5wO-102">
          <mxGeometry relative="1" as="geometry" />
        </mxCell>
        <mxCell id="LSAlraSe59On-p1QP0S1-13" style="edgeStyle=orthogonalEdgeStyle;rounded=0;orthogonalLoop=1;jettySize=auto;html=1;entryX=1.005;entryY=0.166;entryDx=0;entryDy=0;entryPerimeter=0;fontColor=#00994D;strokeColor=#006633;" edge="1" parent="1" source="ndZB8lVZRMzsE8QjB5wO-99" target="ndZB8lVZRMzsE8QjB5wO-102">
          <mxGeometry relative="1" as="geometry">
            <Array as="points">
              <mxPoint x="800" y="402" />
            </Array>
          </mxGeometry>
        </mxCell>
        <mxCell id="LSAlraSe59On-p1QP0S1-14" value="Push&lt;br&gt;" style="text;html=1;align=center;verticalAlign=middle;resizable=0;points=[];autosize=1;strokeColor=none;fillColor=none;" vertex="1" parent="1">
          <mxGeometry x="770" y="-44.92" width="50" height="30" as="geometry" />
        </mxCell>
        <mxCell id="LSAlraSe59On-p1QP0S1-15" style="edgeStyle=orthogonalEdgeStyle;rounded=0;orthogonalLoop=1;jettySize=auto;html=1;exitX=1;exitY=0.25;exitDx=0;exitDy=0;entryX=0;entryY=0.75;entryDx=0;entryDy=0;entryPerimeter=0;strokeColor=#FF8000;" edge="1" parent="1" source="ndZB8lVZRMzsE8QjB5wO-102" target="ndZB8lVZRMzsE8QjB5wO-72">
          <mxGeometry relative="1" as="geometry">
            <Array as="points">
              <mxPoint x="720" y="433" />
              <mxPoint x="920" y="433" />
            </Array>
          </mxGeometry>
        </mxCell>
      </root>
    </mxGraphModel>
  </diagram>
</mxfile>
